<svg id="_0c839ceedf50cdf2db05dfee9af83666" data-name="0c839ceedf50cdf2db05dfee9af83666" xmlns="http://www.w3.org/2000/svg" width="41.71" height="41.744" viewBox="0 0 41.71 41.744">
  <path id="Pfad_2" data-name="Pfad 2" d="M30.859,51.344A20.764,20.764,0,0,1,10,30.447,20.623,20.623,0,0,1,30.851,9.6,20.629,20.629,0,0,1,51.71,30.51,20.764,20.764,0,0,1,30.859,51.344Zm0-39.463A18.572,18.572,0,1,0,49.429,30.536,18.574,18.574,0,0,0,30.864,11.881Z" transform="translate(-10 -9.6)" fill="#232a35"/>
  <path id="Pfad_3" data-name="Pfad 3" d="M310.586,141.1c-.132.728-.255,1.388-.375,2.043q-.945,5.088-1.885,10.181c-.37,1.988-.736,3.979-1.111,5.967a.506.506,0,0,1-.153.264q-5.158,4.411-10.317,8.814-1.768,1.513-3.541,3.018c-.051.043-.106.081-.2.162.081-.438.145-.821.217-1.2q1.57-8.485,3.15-16.965a.578.578,0,0,1,.183-.3q3.99-3.416,7.993-6.827,2.943-2.509,5.882-5.022C310.454,141.206,310.493,141.177,310.586,141.1Zm-15.505,26.8c.017.009.03.021.047.03q5.4-4.59,10.819-9.193c-2.771-1.6-5.512-3.184-8.274-4.775C296.8,158.627,295.945,163.262,295.081,167.9Z" transform="translate(-280.955 -135.503)" fill="#232a35"/>
</svg>
