<svg xmlns="http://www.w3.org/2000/svg" width="64.998" height="38.408" viewBox="0 0 64.998 38.408"><g transform="translate(-1 -6)"><g transform="translate(15.772 6)"><path d="M14.863,14.863A8.705,8.705,0,0,1,23.727,6a8.705,8.705,0,0,1,8.863,8.863,8.705,8.705,0,0,1-8.863,8.863A8.705,8.705,0,0,1,14.863,14.863Zm8.863,14.772C10.136,29.635,6,39.385,6,39.385v5.023H41.453V39.385S37.317,29.635,23.727,29.635Z" transform="translate(-6 -6)" fill="#fdf2df"/></g><g transform="translate(44.43 6)"><g transform="translate(0.908)"><circle cx="7.46" cy="7.46" r="7.46" transform="translate(0)" fill="#fdf2df"/></g><g transform="translate(0 20.681)"><path d="M23.972,13A13.753,13.753,0,0,0,15.7,15.364c6.8,3.25,9.454,8.863,9.454,9.454v.3H37.267V21.272C37.267,20.977,34.018,13,23.972,13Z" transform="translate(-15.7 -13)" fill="#fdf2df"/></g></g><g transform="translate(44.43 6)"><g transform="translate(0.908)"><circle cx="7.46" cy="7.46" r="7.46" transform="translate(0)" fill="#fdf2df"/></g><g transform="translate(0 20.681)"><path d="M23.972,13A13.753,13.753,0,0,0,15.7,15.364c6.8,3.25,9.454,8.863,9.454,9.454v.3H37.267V21.272C37.267,20.977,34.018,13,23.972,13Z" transform="translate(-15.7 -13)" fill="#fdf2df"/></g></g><g transform="translate(1 6)"><g transform="translate(5.862)"><circle cx="7.46" cy="7.46" r="7.46" transform="translate(0)" fill="#fdf2df"/></g><g transform="translate(0 20.681)"><path d="M14.295,13a13.753,13.753,0,0,1,8.272,2.364c-6.8,3.25-9.454,8.863-9.454,9.454v.3H1V21.272C1,20.977,4.25,13,14.295,13Z" transform="translate(-1 -13)" fill="#fdf2df"/></g></g></g></svg>