<svg xmlns="http://www.w3.org/2000/svg" width="46.707" height="44.372" viewBox="0 0 46.707 44.372"><g transform="translate(0 -0.5)"><g transform="translate(0 0.5)" opacity="0.9"><path d="M24.521,0A21.809,21.809,0,0,0,5.371,11.21L0,5.838v15.18H15.18L8.641,14.479a17.609,17.609,0,0,1,33.4,7.707,17.555,17.555,0,0,1-34.1,5.838h-4.9a22.232,22.232,0,0,0,43.671-5.838A22.327,22.327,0,0,0,24.521,0Zm-3.5,11.677v11.91l10.976,6.539,1.868-3.036-9.341-5.6V11.677Z" fill="#fdf2df" fill-rule="evenodd"/></g></g></svg>