<svg id="Gruppe_20" data-name="Gruppe 20" xmlns="http://www.w3.org/2000/svg" width="51.507" height="41.744" viewBox="0 0 51.507 41.744">
  <g id="Rechteck_16" data-name="Rechteck 16" transform="translate(17.91 41.744) rotate(-90)" fill="rgba(35,42,53,0)" stroke="#232a35" stroke-width="2.5">
    <rect width="41.744" height="15.688" rx="2" stroke="none"/>
    <rect x="1.25" y="1.25" width="39.244" height="13.188" rx="0.75" fill="none"/>
  </g>
  <text id="_1" data-name="1" transform="translate(22.944 12.547)" fill="#232a35" font-size="11" font-family="Simpel-Medium, Simpel" font-weight="500"><tspan x="0" y="0">1</tspan></text>
  <g id="Pfad_5" data-name="Pfad 5" transform="translate(0 41.744) rotate(-90)" fill="rgba(35,42,53,0)">
    <path d="M 25.89145088195801 14.4380578994751 L 1.87299120426178 14.4380578994751 C 1.529471278190613 14.4380578994751 1.250001192092896 14.15857791900635 1.250001192092896 13.8150577545166 L 1.250001192092896 1.872997522354126 C 1.250001192092896 1.529477477073669 1.529471278190613 1.249997496604919 1.87299120426178 1.249997496604919 L 25.89145088195801 1.249997496604919 C 26.23497200012207 1.249997496604919 26.51444053649902 1.529477477073669 26.51444053649902 1.872997522354126 L 26.51444053649902 13.8150577545166 C 26.51444053649902 14.15857791900635 26.23497200012207 14.4380578994751 25.89145088195801 14.4380578994751 Z" stroke="none"/>
    <path d="M 2.500001907348633 2.499997138977051 L 2.500001907348633 13.18805694580078 L 25.26444053649902 13.18805694580078 L 25.26444053649902 2.499997138977051 L 2.500001907348633 2.499997138977051 M 1.872991561889648 -2.86102294921875e-06 L 25.89145088195801 -2.86102294921875e-06 C 26.92587089538574 -2.86102294921875e-06 27.76444053649902 0.8385677337646484 27.76444053649902 1.872997283935547 L 27.76444053649902 13.8150577545166 C 27.76444053649902 14.8494873046875 26.92587089538574 15.6880578994751 25.89145088195801 15.6880578994751 L 1.872991561889648 15.6880578994751 C 0.8385715484619141 15.6880578994751 1.9073486328125e-06 14.8494873046875 1.9073486328125e-06 13.8150577545166 L 1.9073486328125e-06 1.872997283935547 C 1.9073486328125e-06 0.8385677337646484 0.8385715484619141 -2.86102294921875e-06 1.872991561889648 -2.86102294921875e-06 Z" stroke="none" fill="#232a35"/>
  </g>
  <text id="_3" data-name="3" transform="translate(39.917 33.213)" fill="#232a35" font-size="13" font-family="Simpel-Medium, Simpel" font-weight="500"><tspan x="0" y="0">3</tspan></text>
  <g id="Pfad_4" data-name="Pfad 4" transform="translate(35.819 41.744) rotate(-90)" fill="rgba(35,42,53,0)">
    <path d="M 19.19821166992188 14.4380578994751 L 1.873001575469971 14.4380578994751 C 1.529481649398804 14.4380578994751 1.250001668930054 14.15857791900635 1.250001668930054 13.8150577545166 L 1.250001668930054 1.872997522354126 C 1.250001668930054 1.529477477073669 1.529481649398804 1.249997496604919 1.873001575469971 1.249997496604919 L 19.19821166992188 1.249997496604919 C 19.5417308807373 1.249997496604919 19.82120132446289 1.529477477073669 19.82120132446289 1.872997522354126 L 19.82120132446289 13.8150577545166 C 19.82120132446289 14.15857791900635 19.5417308807373 14.4380578994751 19.19821166992188 14.4380578994751 Z" stroke="none"/>
    <path d="M 2.500001907348633 2.499997138977051 L 2.500001907348633 13.18805694580078 L 18.57120132446289 13.18805694580078 L 18.57120132446289 2.499997138977051 L 2.500001907348633 2.499997138977051 M 1.872991561889648 -2.86102294921875e-06 L 19.19821166992188 -2.86102294921875e-06 C 20.23263168334961 -2.86102294921875e-06 21.07120132446289 0.8385677337646484 21.07120132446289 1.872997283935547 L 21.07120132446289 13.8150577545166 C 21.07120132446289 14.8494873046875 20.23263168334961 15.6880578994751 19.19821166992188 15.6880578994751 L 1.872991561889648 15.6880578994751 C 0.8385715484619141 15.6880578994751 1.9073486328125e-06 14.8494873046875 1.9073486328125e-06 13.8150577545166 L 1.9073486328125e-06 1.872997283935547 C 1.9073486328125e-06 0.8385677337646484 0.8385715484619141 -2.86102294921875e-06 1.872991561889648 -2.86102294921875e-06 Z" stroke="none" fill="#232a35"/>
  </g>
  <text id="_2" data-name="2" transform="translate(3.746 26.658)" fill="#232a35" font-size="12" font-family="Simpel-Medium, Simpel" font-weight="500"><tspan x="0" y="0">2</tspan></text>
</svg>
