<svg xmlns="http://www.w3.org/2000/svg" width="225.409" height="160.6" viewBox="0 0 225.409 160.6">
  <g id="layer1" transform="translate(-29.082 -9.2)">
    <g id="g1189" transform="translate(29.254 9.386)">
      <path id="path1051" d="M6.9,181.094s27.182-68.182,57.856-68.182c31.889,0,38.419,73.5,77.748,73.648,37.356,0,89.452-68.485,89.452-68.485" transform="translate(-6.897 -112.913)" fill="none" stroke="#000" stroke-width="0.372"/>
      <path id="path1051-3" d="M231.953,117.432s-16.552,68.03-47.226,68.03c-31.889,0-49.656-72.282-88.985-72.433-37.356,0-88.844,67.422-88.844,67.422" transform="translate(-6.897 -112.267)" fill="none" stroke="#000" stroke-width="0.372"/>
      <path id="path1143" d="M7.831,169.641c0-.344,2.559-5.544,4.938-10.035C26.62,133.463,41.4,117.119,54.3,113.679a24.031,24.031,0,0,1,10.158,0c1.995.6,5.333,2.2,5.327,2.546a17.7,17.7,0,0,1-3.121,1.827c-15.63,8.038-35.873,25.622-55.753,48.431-2.605,2.989-3.077,3.472-3.077,3.156Z" transform="translate(-1.667 -111.654)" fill="#737ca1"/>
      <path id="path1145" d="M78.076,183.486c-11.218-.838-20.286-7.454-30.1-21.962-2.693-3.98-4.848-7.547-10.239-16.947-5.589-9.745-7.129-12.3-9.882-16.375a63.966,63.966,0,0,0-8.611-10.588,7.534,7.534,0,0,1-1.161-1.231c.037-.037,1.042-.4,2.233-.809a36.642,36.642,0,0,1,15.78-2.193c11,1.18,21.075,7.99,32.94,22.264,3.294,3.963,6.594,8.286,14.036,18.388,7.792,10.577,11.549,15.156,16.483,20.088l2.756,2.754-2,.99a51.687,51.687,0,0,1-16.586,5.418,44.151,44.151,0,0,1-5.65.2Z" transform="translate(55.765 -111.176)" fill="rgba(156,66,94,0.7)"/>
      <path id="path1147" d="M45.686,175.235a24.219,24.219,0,0,1-12.121-4.381c-.834-.558-1.633-1.107-1.775-1.221l-.26-.207.421-.26c.231-.143,1.049-.642,1.817-1.109A146.343,146.343,0,0,0,47.4,158.392c12.987-10.281,28.307-25.675,41.871-42.074a12.158,12.158,0,0,1,1.537-1.7c.049.146-1.338,4.628-2.4,7.775-8.392,24.747-18.772,41.842-29.769,49.028a24.605,24.605,0,0,1-8.121,3.444,28.5,28.5,0,0,1-4.069.42c-.124-.011-.468-.034-.763-.052Z" transform="translate(131.159 -103.359)" fill="#37c1cf"/>
    </g>
    <text id="text1155" transform="translate(29.112 148.8)" font-size="78" font-family="FiraSans-Thin, Fira Sans" font-weight="200"><tspan x="0" y="0">Smudi</tspan></text>
  </g>
</svg>
