<?xml version="1.0" encoding="UTF-8"?>
<svg width="40mm" height="23.654mm" version="1.1" viewBox="0 0 40 23.654" xmlns="http://www.w3.org/2000/svg">
 <g transform="translate(-9.8632 -9.2014)">
  <g transform="matrix(.48663 0 0 .48663 5.9237 -103.53)">
   <path d="m14.174 253.24s8.4572-21.214 18.001-21.214c9.9219 0 11.953 22.868 24.19 22.915 11.623 0 27.832-21.308 27.832-21.308" fill="none" stroke="#000" stroke-width=".765"/>
   <path d="m84.197 233.64s-5.1499 21.167-14.694 21.167c-9.9219 0-15.45-22.49-27.687-22.537-11.623 0-27.643 20.978-27.643 20.978" fill="none" stroke="#000" stroke-width=".765"/>
   <path transform="scale(.26458)" d="m60.82 945.17c0-0.40494 3.0092-6.52 5.807-11.801 16.288-30.743 33.668-49.963 48.836-54.008 3.188-0.85024 9.1166-0.84931 11.946 2e-3 2.3459 0.70587 6.2712 2.5819 6.2643 2.994-2e-3 0.14449-1.6542 1.1112-3.6705 2.1481-18.381 9.453-42.185 30.131-65.564 56.954-3.0635 3.5147-3.6179 4.0834-3.6179 3.711z" fill="#737ca1" stop-color="#000000" style="paint-order:markers stroke fill"/>
   <path transform="scale(.26458)" d="m210.97 962.01c-13.192-0.98562-23.855-8.7653-35.401-25.827-3.1671-4.6803-5.7015-8.875-12.041-19.929-6.5722-11.46-8.3839-14.462-11.621-19.256-3.5768-5.2973-6.9538-9.45-10.126-12.452-0.79487-0.75218-1.4092-1.4036-1.3652-1.4476s1.2255-0.4721 2.6256-0.95133c6.7959-2.3262 12.944-3.1805 18.557-2.5786 12.935 1.3871 24.784 9.3956 38.737 26.182 3.8734 4.66 7.7544 9.7443 16.506 21.624 9.1633 12.439 13.582 17.823 19.384 23.622l3.2404 3.2388-2.3472 1.164c-7.1971 3.5691-13.32 5.5694-19.505 6.3718-1.5133 0.19633-5.3598 0.33434-6.644 0.23839z" fill="#9c425e" fill-opacity=".69804" stop-color="#000000" style="paint-order:markers stroke fill"/>
   <path transform="scale(.26458)" d="m261.54 961.5c-4.842-0.2971-9.5251-1.9897-14.254-5.1517-0.98038-0.65558-1.9199-1.3015-2.0879-1.4354l-0.30536-0.24342 0.49476-0.30581c0.27212-0.1682 1.2334-0.75492 2.1363-1.3038 4.5324-2.7557 10.517-6.9979 16.036-11.367 15.273-12.091 33.288-30.193 49.24-49.478 0.96934-1.1719 1.7828-2.0695 1.8078-1.9947 0.0572 0.17149-1.5735 5.4429-2.8282 9.1428-9.8692 29.102-22.075 49.205-35.007 57.655-2.9555 1.9312-6.5065 3.4369-9.5502 4.0494-1.1721 0.23586-4.1767 0.54599-4.785 0.49389-0.14618-0.0125-0.54988-0.0402-0.89712-0.0615z" fill="#37c1cf" stop-color="#000000" style="paint-order:markers stroke fill"/>
  </g>
  <g stroke-width=".064101" aria-label="Somuto">
   <path d="m12.362 24.241c-1.3292 0-2.203 0.8246-2.203 1.8953 0 1.12 0.55383 1.5753 2.2523 2.1046 1.563 0.5046 2.2769 0.98459 2.2769 2.3015s-0.95998 2.2153-2.3876 2.2153c-1.12 0-1.7723-0.38153-2.3753-0.94767l-0.061537 0.07384c0.62768 0.57845 1.3169 0.97228 2.4369 0.97228 1.4892 0 2.4861-0.95998 2.4861-2.3261 0-1.3538-0.73844-1.8707-2.3384-2.3753-1.6615-0.51691-2.1907-0.94767-2.1907-2.0184 0-1.0215 0.8369-1.7969 2.1046-1.7969 0.95998 0 1.5507 0.29538 2.0923 0.78767l0.06154-0.07384c-0.54153-0.47999-1.1323-0.81229-2.1538-0.81229z"/>
   <path d="m19.205 26.247c-1.5138 0-2.5107 1.1815-2.5107 3.3107 0 2.0553 0.93536 3.2984 2.4861 3.2984 1.5261 0 2.4861-1.2184 2.4861-3.3476 0-2.0676-0.94767-3.2615-2.4615-3.2615zm0 0.08615c1.4646 0 2.363 1.1692 2.363 3.1753 0 2.0923-0.92306 3.2492-2.3876 3.2492-1.4892 0-2.3753-1.1815-2.3753-3.1999 0-2.08 0.94767-3.2245 2.3999-3.2245z"/>
   <path d="m30.018 26.247c-0.92306 0-1.6123 0.61537-2.1292 1.6-0.07385-0.98459-0.60306-1.6-1.5384-1.6-0.92306 0-1.6123 0.60306-2.1292 1.5877v-1.4646h-0.09846v6.3629h0.09846v-4.7507c0.52922-1.0092 1.2061-1.6492 2.1292-1.6492 0.98459 0 1.4523 0.71383 1.4523 1.7846v4.6153h0.09846v-4.7507c0.51691-1.0092 1.1938-1.6492 2.1169-1.6492 0.98459 0 1.4646 0.71383 1.4646 1.883v4.5168h0.09846v-4.5291c0-1.2061-0.51691-1.9569-1.563-1.9569z"/>
   <path d="m38.593 26.37h-0.09846v4.8491c-0.5046 0.91075-1.2061 1.5384-2.2523 1.5384s-1.6738-0.63998-1.6738-1.8707v-4.5168h-0.09846v4.5291c0 1.2677 0.6646 1.9569 1.76 1.9569 1.0584 0 1.7846-0.61537 2.2769-1.5138v1.3907h0.08615z"/>
   <path d="m43.949 32.425c-0.28307 0.18461-0.62768 0.3323-1.1323 0.3323-0.77537 0-1.2061-0.51691-1.2061-1.4277v-4.8737h1.7723l0.01231-0.08615h-1.7846v-1.6492l-0.09846 0.01231v1.6369h-1.0707v0.08615h1.0707v4.8737c0 0.98459 0.4923 1.5261 1.3046 1.5261 0.51691 0 0.86152-0.16 1.1815-0.35691z"/>
   <path d="m47.402 26.247c-1.5138 0-2.5107 1.1815-2.5107 3.3107 0 2.0553 0.93536 3.2984 2.4861 3.2984 1.5261 0 2.4861-1.2184 2.4861-3.3476 0-2.0676-0.94767-3.2615-2.4615-3.2615zm0 0.08615c1.4646 0 2.363 1.1692 2.363 3.1753 0 2.0923-0.92306 3.2492-2.3876 3.2492-1.4892 0-2.3753-1.1815-2.3753-3.1999 0-2.08 0.94767-3.2245 2.3999-3.2245z"/>
  </g>
 </g>
</svg>
