<?xml version="1.0" encoding="UTF-8"?>
<svg width="30mm" height="21.399mm" version="1.1" viewBox="0 0 30 21.399" xmlns="http://www.w3.org/2000/svg">
 <g transform="translate(-31.945 -20.395)">
  <g stroke-width=".034752" aria-label="SOCIAL MUSIC TOGETHER">
   <path d="m33.626 20.395c-0.8007 0-1.3412 0.47375-1.3412 1.121 0 0.66058 0.39368 0.97418 1.3011 1.2544 0.81404 0.25355 1.0876 0.48042 1.0876 1.0342 0 0.61387-0.47375 0.96751-1.1143 0.96751-0.5338 0-0.88744-0.1935-1.2277-0.48709l-0.22686 0.25355c0.37366 0.35364 0.83406 0.57383 1.4613 0.57383 0.9208 0 1.5147-0.54047 1.5147-1.3212 0-0.80737-0.50044-1.101-1.3212-1.3545-0.82072-0.24688-1.0676-0.4604-1.0676-0.92748 0-0.48042 0.387-0.77401 0.94749-0.77401 0.42037 0 0.7273 0.12678 1.0676 0.42037l0.23354-0.25355c-0.36031-0.32028-0.72063-0.50711-1.3145-0.50711z"/>
   <path d="m37.744 20.395c-1.0943 0-1.8616 0.86075-1.8616 2.3687 0 1.5213 0.76066 2.3487 1.8616 2.3487 1.1343 0 1.8683-0.85408 1.8683-2.3554 0-1.5413-0.75399-2.3621-1.8683-2.3621zm0 0.3403c0.88077 0 1.4479 0.63388 1.4479 2.0218 0 1.3745-0.55382 2.0151-1.4479 2.0151-0.8474 0-1.4413-0.64056-1.4413-2.0084 0-1.3879 0.5805-2.0284 1.4413-2.0284z"/>
   <path d="m42.344 20.395c-1.0142 0-1.8483 0.79402-1.8483 2.3554 0 1.5413 0.78735 2.3621 1.8416 2.3621 0.56716 0 0.96084-0.21352 1.2344-0.47375l-0.20685-0.26023c-0.2669 0.21352-0.54047 0.38033-1.0142 0.38033-0.8007 0-1.4346-0.62054-1.4346-2.0084 0-1.4546 0.66058-2.0151 1.4546-2.0151 0.37366 0 0.62721 0.10676 0.93415 0.34697l0.21352-0.2669c-0.32695-0.2669-0.63389-0.42037-1.1744-0.42037z"/>
   <path d="m44.871 20.468h-0.40035v4.5706h0.40035z"/>
   <path d="m48.843 25.039h0.42037l-1.5213-4.5706h-0.50044l-1.528 4.5706h0.40702l0.40035-1.2478h1.9217zm-2.2086-1.588 0.85408-2.6556 0.8474 2.6556z"/>
   <path d="m50.514 20.468h-0.40035v4.5706h2.2553l0.05338-0.36031h-1.9083z"/>
   <path d="m36.082 28.809h-0.56049l-1.0943 3.5564-1.1343-3.5564h-0.55382l-0.43371 4.5706h0.38033l0.20018-2.2019c0.06005-0.70061 0.13345-1.5213 0.15347-1.9751l1.1877 3.6365h0.38033l1.1477-3.6365c0.02669 0.41369 0.10009 1.2544 0.17348 1.9884l0.20685 2.1886h0.387z"/>
   <path d="m40.656 28.809h-0.40702v3.1094c0 0.73397-0.32695 1.1877-1.0943 1.1877-0.76734 0-1.101-0.44706-1.101-1.1877v-3.1094h-0.40035v3.1427c0 0.88077 0.48709 1.5013 1.5013 1.5013 1.0009 0 1.5013-0.62054 1.5013-1.5013z"/>
   <path d="m43.049 28.735c-0.8007 0-1.3412 0.47375-1.3412 1.121 0 0.66058 0.39368 0.97418 1.3011 1.2544 0.81404 0.25355 1.0876 0.48042 1.0876 1.0342 0 0.61387-0.47375 0.96751-1.1143 0.96751-0.5338 0-0.88744-0.1935-1.2277-0.48709l-0.22686 0.25355c0.37366 0.35364 0.83406 0.57383 1.4613 0.57383 0.9208 0 1.5147-0.54047 1.5147-1.3212 0-0.80737-0.50044-1.101-1.3212-1.3545-0.82072-0.24688-1.0676-0.4604-1.0676-0.92748 0-0.48042 0.387-0.77401 0.94749-0.77401 0.42037 0 0.7273 0.12678 1.0676 0.42037l0.23354-0.25355c-0.36031-0.32028-0.72063-0.50711-1.3145-0.50711z"/>
   <path d="m46.005 28.809h-0.40035v4.5706h0.40035z"/>
   <path d="m49.029 28.735c-1.0142 0-1.8483 0.79402-1.8483 2.3554 0 1.5413 0.78735 2.3621 1.8416 2.3621 0.56716 0 0.96084-0.21352 1.2344-0.47375l-0.20685-0.26023c-0.2669 0.21352-0.54047 0.38033-1.0142 0.38033-0.8007 0-1.4346-0.62054-1.4346-2.0084 0-1.4546 0.66058-2.0151 1.4546-2.0151 0.37366 0 0.62721 0.10676 0.93415 0.34697l0.21352-0.2669c-0.32695-0.2669-0.63389-0.42037-1.1744-0.42037z"/>
   <path d="m35.081 37.149h-3.1361v0.35364h1.3545v4.217h0.39368v-4.217h1.3412z"/>
   <path d="m37.21 37.076c-1.0943 0-1.8616 0.86075-1.8616 2.3687 0 1.5213 0.76066 2.3487 1.8616 2.3487 1.1343 0 1.8683-0.85408 1.8683-2.3554 0-1.5413-0.75399-2.3621-1.8683-2.3621zm0 0.3403c0.88077 0 1.4479 0.63388 1.4479 2.0218 0 1.3745-0.55382 2.0151-1.4479 2.0151-0.8474 0-1.4413-0.64056-1.4413-2.0084 0-1.3879 0.58051-2.0284 1.4413-2.0284z"/>
   <path d="m41.87 37.076c-0.98085 0-1.9083 0.76734-1.9083 2.342 0 1.5814 0.75399 2.3754 1.8883 2.3754 0.49376 0 0.94749-0.14012 1.3545-0.37366v-2.1619h-1.3345l0.04671 0.33362h0.89411v1.6214c-0.28692 0.16014-0.58718 0.24021-0.96084 0.24021-0.90078 0-1.4679-0.63388-1.4679-2.0351 0-1.4546 0.75399-2.0017 1.488-2.0017 0.40702 0 0.69394 0.11343 1.0142 0.36699l0.24021-0.25355c-0.37366-0.30026-0.72063-0.45373-1.2544-0.45373z"/>
   <path d="m46.702 37.149h-2.322v4.5706h2.3687v-0.33362h-1.9684v-1.8683h1.6214v-0.33362h-1.6214v-1.7015h1.875z"/>
   <path d="m50.29 37.149h-3.1361v0.35364h1.3545v4.217h0.39368v-4.217h1.3412z"/>
   <path d="m53.68 41.72h0.40035v-4.5706h-0.40035v1.9951h-2.1886v-1.9951h-0.40035v4.5706h0.40035v-2.2353h2.1886z"/>
   <path d="m57.883 37.149h-2.322v4.5706h2.3687v-0.33362h-1.9684v-1.8683h1.6214v-0.33362h-1.6214v-1.7015h1.875z"/>
   <path d="m61.471 41.72h0.47375l-1.2544-2.1218c0.64723-0.16681 1.0209-0.52713 1.0209-1.2077 0-0.80737-0.52713-1.2411-1.6281-1.2411h-1.1076v4.5706h0.40035v-2.0485h0.91413zm-2.0952-2.3754v-1.8683h0.69394c0.8741 0 1.2144 0.30693 1.2144 0.91413 0 0.66725-0.42037 0.95416-1.1477 0.95416z"/>
  </g>
 </g>
</svg>
