<svg xmlns="http://www.w3.org/2000/svg" width="117.618" height="108.57" viewBox="0 0 117.618 108.57">
  <path id="soundwave" d="M60.809,2a4.524,4.524,0,0,1,4.524,4.524v99.523a4.524,4.524,0,1,1-9.048,0V6.524A4.524,4.524,0,0,1,60.809,2Zm-18.1,18.1a4.524,4.524,0,0,1,4.524,4.524V87.952a4.524,4.524,0,0,1-9.048,0V24.619A4.524,4.524,0,0,1,42.714,20.1Zm36.19,0a4.524,4.524,0,0,1,4.524,4.524V87.952a4.524,4.524,0,0,1-9.048,0V24.619A4.524,4.524,0,0,1,78.9,20.1ZM24.619,33.666a4.524,4.524,0,0,1,4.524,4.524V74.38a4.524,4.524,0,0,1-9.048,0V38.19A4.524,4.524,0,0,1,24.619,33.666Zm72.38,0a4.524,4.524,0,0,1,4.524,4.524V74.38a4.524,4.524,0,0,1-9.048,0V38.19A4.524,4.524,0,0,1,97,33.666ZM6.524,42.714a4.524,4.524,0,0,1,4.524,4.524v18.1a4.524,4.524,0,1,1-9.048,0v-18.1A4.524,4.524,0,0,1,6.524,42.714Zm108.57,0a4.524,4.524,0,0,1,4.524,4.524v18.1a4.524,4.524,0,1,1-9.048,0v-18.1A4.524,4.524,0,0,1,115.094,42.714Z" transform="translate(-2 -2)" fill-rule="evenodd"/>
</svg>
